FILE "Ginga Ojousama Densetsu Yuna FX - Kanashimi no Siren (1995)(Hudson)(JP)(pre-release)[FXHUD506A].img" BINARY
  TRACK 01 AUDIO
    INDEX 01 00:00:00
  TRACK 02 MODE1/2352
    PREGAP 00:03:00
    INDEX 01 00:55:45
  TRACK 03 MODE1/2352
    INDEX 01 11:30:74
